<?xml version="1.0" standalone="no"?>
<!DOCTYPE svg PUBLIC "-//W3C//DTD SVG 20010904//EN"
 "http://www.w3.org/TR/2001/REC-SVG-20010904/DTD/svg10.dtd">
<svg version="1.0" xmlns="http://www.w3.org/2000/svg"
 width="100.000000pt" height="100.000000pt" viewBox="0 0 100.000000 100.000000"
 preserveAspectRatio="xMidYMid meet">

<g transform="translate(0.000000,100.000000) scale(0.100000,-0.100000)"
fill="#000000" stroke="none">
<path d="M305 969 c-11 -6 -29 -20 -41 -31 -18 -16 -25 -17 -47 -7 -37 17 -89
3 -123 -32 -24 -25 -29 -39 -29 -79 0 -32 6 -54 17 -67 16 -18 18 -48 18 -327
0 -331 3 -353 52 -386 36 -23 455 -28 514 -5 53 20 74 60 74 143 0 57 1 60 28
65 72 16 130 85 158 189 40 150 -15 239 -138 225 l-48 -6 0 31 c0 21 9 42 28
61 22 23 27 38 27 77 0 40 -5 54 -29 79 -38 39 -87 49 -133 27 -31 -15 -36
-15 -65 0 -20 10 -44 14 -66 10 -26 -4 -43 0 -64 16 -35 24 -105 33 -133 17z
m105 -46 c14 -9 30 -23 36 -31 8 -11 15 -12 32 -3 31 17 66 13 96 -10 l26 -20
26 20 c36 28 79 27 109 -4 73 -72 -28 -178 -110 -114 l-27 22 -26 -27 c-24
-23 -27 -34 -27 -89 1 -34 9 -86 19 -114 9 -29 15 -62 11 -73 -15 -46 -86 -50
-106 -6 -9 19 -7 36 7 77 10 30 18 82 19 116 0 52 -4 66 -22 85 -22 21 -23 21
-58 5 -49 -23 -73 -21 -117 9 l-38 27 -25 -27 c-32 -34 -77 -35 -110 -1 -70
69 23 175 104 118 23 -16 25 -15 45 9 41 50 92 61 136 31z m-32 -218 c78 15
77 15 77 -40 -1 -88 6 -85 -165 -85 l-150 0 0 63 0 63 33 -3 c19 -2 44 4 62
15 29 18 31 18 68 -1 28 -15 47 -18 75 -12z m302 -5 c18 0 20 -6 20 -60 l0
-60 -49 0 c-28 0 -53 4 -56 10 -14 22 -17 110 -5 125 11 13 15 13 41 0 15 -8
37 -15 49 -15z m197 -106 c24 -24 25 -30 20 -90 -11 -112 -65 -203 -129 -219
l-28 -7 0 165 c0 184 -4 173 73 176 28 1 44 -5 64 -25z m-455 -79 c-10 -55 41
-115 98 -115 57 0 108 60 98 115 -5 24 -3 25 39 25 l44 0 -3 -220 c-3 -195 -5
-221 -21 -237 -16 -16 -41 -18 -258 -18 l-241 0 -19 24 c-17 21 -19 41 -19
237 l0 214 144 0 143 0 -5 -25z"/>
</g>
</svg>
