<?xml version="1.0" standalone="no"?>
<!DOCTYPE svg PUBLIC "-//W3C//DTD SVG 20010904//EN"
 "http://www.w3.org/TR/2001/REC-SVG-20010904/DTD/svg10.dtd">
<svg version="1.0" xmlns="http://www.w3.org/2000/svg"
 width="100.000000pt" height="100.000000pt" viewBox="0 0 100.000000 100.000000"
 preserveAspectRatio="xMidYMid meet">

<g transform="translate(0.000000,100.000000) scale(0.100000,-0.100000)"
fill="#000000" stroke="none">
<path d="M445 975 c-16 -15 -25 -36 -25 -54 0 -25 -6 -33 -32 -44 -96 -40
-136 -112 -149 -263 -12 -150 -29 -197 -101 -265 -32 -30 -58 -62 -58 -71 0
-48 74 -91 175 -103 139 -15 130 -11 130 -61 0 -36 6 -50 33 -77 47 -47 117
-47 164 0 27 27 33 41 33 77 0 50 -9 46 130 61 101 12 175 55 175 103 0 9 -26
41 -58 71 -72 68 -89 115 -101 265 -13 151 -53 223 -148 263 -27 11 -33 19
-33 44 0 40 -39 79 -80 79 -19 0 -40 -9 -55 -25z m85 -30 c26 -32 -13 -81 -47
-59 -35 22 -23 74 17 74 10 0 23 -7 30 -15z m72 -104 c17 -3 80 -66 95 -94 9
-18 19 -76 24 -138 13 -159 47 -241 125 -299 19 -14 34 -31 34 -38 1 -75 -563
-100 -717 -32 -24 10 -43 23 -43 27 0 5 26 36 58 68 70 72 89 125 101 277 5
58 15 117 24 134 16 31 60 75 91 91 14 8 173 11 208 4z m-24 -718 c7 -71 -82
-110 -133 -58 -24 23 -34 73 -18 89 4 4 39 5 78 4 l70 -3 3 -32z"/>
</g>
</svg>
