<?xml version="1.0" standalone="no"?>
<!DOCTYPE svg PUBLIC "-//W3C//DTD SVG 20010904//EN"
 "http://www.w3.org/TR/2001/REC-SVG-20010904/DTD/svg10.dtd">
<svg version="1.0" xmlns="http://www.w3.org/2000/svg"
 width="100.000000pt" height="100.000000pt" viewBox="0 0 100.000000 100.000000"
 preserveAspectRatio="xMidYMid meet">

<g transform="translate(0.000000,100.000000) scale(0.100000,-0.100000)"
fill="#000000" stroke="none">
<path d="M386 944 c-224 -54 -376 -287 -338 -516 63 -374 519 -516 780 -244
318 333 7 869 -442 760z m97 -44 c7 -26 27 -26 34 1 5 18 11 19 47 13 181 -30
320 -169 350 -350 6 -36 5 -42 -13 -47 -12 -3 -21 -10 -21 -17 0 -7 9 -14 21
-17 18 -5 19 -11 13 -47 -30 -181 -169 -320 -350 -350 -36 -6 -42 -5 -47 13
-7 27 -27 27 -34 0 -5 -18 -11 -19 -47 -13 -181 30 -320 169 -350 350 -6 36
-5 42 13 47 27 7 27 27 0 34 -18 5 -19 11 -13 47 28 167 144 297 304 340 74
20 87 19 93 -4z"/>
<path d="M600 669 c-74 -49 -145 -99 -157 -111 -12 -11 -63 -83 -114 -159
-121 -183 -114 -192 58 -78 70 46 141 96 158 111 17 15 73 90 124 167 82 123
99 161 72 161 -4 0 -67 -41 -141 -91z m-100 -170 c17 -17 30 -32 28 -34 -7 -5
-164 -111 -176 -118 -7 -5 15 34 50 87 35 53 64 96 65 96 1 0 16 -14 33 -31z"/>
</g>
</svg>
