<?xml version="1.0" standalone="no"?>
<!DOCTYPE svg PUBLIC "-//W3C//DTD SVG 20010904//EN"
 "http://www.w3.org/TR/2001/REC-SVG-20010904/DTD/svg10.dtd">
<svg version="1.0" xmlns="http://www.w3.org/2000/svg"
 width="100.000000pt" height="100.000000pt" viewBox="0 0 100.000000 100.000000"
 preserveAspectRatio="xMidYMid meet">

<g transform="translate(0.000000,100.000000) scale(0.100000,-0.100000)"
fill="#000000" stroke="none">
<path d="M0 880 c0 -113 1 -120 20 -120 18 0 20 7 20 87 l0 87 75 -74 c41 -41
75 -79 75 -84 0 -6 -11 -22 -25 -36 -21 -22 -23 -29 -12 -38 11 -9 19 -6 37
13 13 14 29 25 35 25 6 0 28 -18 50 -40 l39 -40 -24 -46 c-29 -60 -36 -122
-19 -181 18 -66 96 -144 162 -162 l47 -14 0 -95 0 -96 -58 57 c-48 47 -61 55
-70 44 -9 -10 5 -30 68 -92 l80 -80 80 80 c63 62 77 82 68 92 -9 11 -22 3 -70
-44 l-58 -57 0 96 0 95 48 14 c65 18 143 96 161 162 17 59 10 121 -20 181
l-23 47 87 87 87 87 50 -50 c39 -38 52 -47 62 -37 10 10 1 23 -37 62 l-49 50
54 55 c43 43 52 57 42 67 -10 10 -24 1 -67 -42 l-55 -54 -50 49 c-39 38 -52
47 -62 37 -10 -10 -1 -23 37 -62 l50 -50 -87 -87 -87 -87 -48 25 c-67 34 -159
34 -226 0 l-47 -25 -40 39 c-22 22 -40 44 -40 50 0 6 11 22 25 35 19 18 22 26
13 37 -9 11 -16 9 -38 -12 -14 -14 -30 -25 -36 -25 -5 0 -43 34 -84 75 l-74
75 87 0 c80 0 87 2 87 20 0 19 -7 20 -120 20 l-120 0 0 -120z m610 -214 c59
-39 85 -89 85 -166 0 -78 -26 -127 -88 -168 -56 -37 -153 -39 -210 -3 -76 47
-111 140 -88 229 14 51 75 117 123 131 53 16 135 6 178 -23z"/>
</g>
</svg>
