<?xml version="1.0" standalone="no"?>
<!DOCTYPE svg PUBLIC "-//W3C//DTD SVG 20010904//EN"
 "http://www.w3.org/TR/2001/REC-SVG-20010904/DTD/svg10.dtd">
<svg version="1.0" xmlns="http://www.w3.org/2000/svg"
 width="640.000000pt" height="640.000000pt" viewBox="0 0 640.000000 640.000000"
 preserveAspectRatio="xMidYMid meet">

<g transform="translate(0.000000,640.000000) scale(0.100000,-0.100000)"
fill="#000000" stroke="none">
<path d="M1605 5683 c-49 -3 -121 -18 -160 -33 -49 -18 -161 -75 -173 -87 -7
-7 -17 -13 -21 -13 -4 0 -35 -26 -68 -57 -125 -119 -198 -262 -223 -433 -13
-91 -13 -1939 0 -2071 18 -183 57 -362 117 -539 60 -176 184 -416 296 -570
144 -198 361 -410 547 -535 25 -16 47 -33 48 -37 2 -5 10 -8 18 -8 8 0 14 -4
14 -8 0 -5 16 -14 35 -22 19 -8 35 -17 35 -20 0 -3 48 -30 108 -59 59 -29 124
-61 145 -72 22 -10 47 -19 56 -19 9 0 21 -4 27 -8 9 -8 159 -59 239 -81 90
-25 259 -50 402 -61 219 -17 518 9 708 61 77 21 280 91 325 111 115 53 210
101 210 107 0 4 -42 13 -92 20 -51 6 -109 16 -128 21 -19 5 -75 18 -125 30
-86 20 -119 31 -252 82 -130 49 -407 196 -455 241 -7 7 -40 32 -73 57 -33 25
-68 52 -79 60 -27 22 -195 188 -236 235 -156 178 -321 483 -381 705 -71 258
-70 244 -75 1360 -2 547 -7 1015 -10 1040 -13 103 -56 203 -136 324 -18 27
-97 103 -138 134 -19 15 -37 29 -40 33 -15 16 -183 88 -230 97 -62 13 -161 19
-235 15z"/>
<path d="M4570 5670 c-8 -5 -25 -10 -38 -10 -12 0 -30 -4 -40 -9 -9 -5 -39
-19 -67 -32 -27 -13 -51 -27 -53 -31 -2 -5 -10 -8 -18 -8 -8 0 -14 -4 -14 -10
0 -5 -7 -10 -15 -10 -8 0 -15 -4 -15 -10 0 -5 -5 -10 -10 -10 -17 0 -83 -62
-154 -144 -36 -42 -73 -115 -103 -198 -32 -93 -32 -85 -37 -1218 -4 -871 -5
-897 -26 -980 -11 -47 -25 -89 -30 -94 -6 -6 -10 -17 -10 -26 0 -16 -66 -132
-98 -173 -32 -40 -137 -143 -173 -169 -151 -111 -362 -167 -553 -146 -44 4
-81 6 -84 4 -14 -15 164 -242 255 -326 288 -264 662 -430 968 -430 114 0 298
36 367 71 10 5 25 9 34 9 25 0 171 77 242 127 111 79 255 239 326 364 83 144
155 360 194 579 l25 145 4 1055 c4 942 2 1062 -12 1127 -16 70 -69 194 -103
239 -10 12 -24 32 -32 44 -18 26 -86 100 -93 100 -3 0 -19 14 -37 30 -18 17
-39 30 -47 30 -8 0 -11 5 -8 10 3 6 -3 10 -14 10 -12 0 -21 3 -21 8 0 8 -49
32 -67 32 -7 0 -13 5 -13 10 0 6 -9 10 -19 10 -11 0 -22 4 -25 9 -10 15 -76
23 -226 27 -87 3 -151 0 -160 -6z"/>
</g>
</svg>
